<?xml version="1.0" encoding="utf-8"?>
<!-- Generator: Adobe Illustrator 22.0.1, SVG Export Plug-In . SVG Version: 6.00 Build 0)  -->
<svg version="1.1" id="Слой_1" xmlns="http://www.w3.org/2000/svg" xmlns:xlink="http://www.w3.org/1999/xlink" x="0px" y="0px"
	 viewBox="0 0 80 80" style="enable-background:new 0 0 80 80;" xml:space="preserve">
<style type="text/css">
	.st0{fill:#26AE61;}
</style>
<g>
	<path d="M39,3C18.9,3,2.5,19.4,2.5,39.4c0,20.1,16.3,36.4,36.4,36.4c4.6,0,9-0.8,13-2.4v-2.9c-4,1.7-8.4,2.6-13,2.6
		C20.3,73.1,5.2,58,5.2,39.4C5.2,20.8,20.3,5.7,39,5.7c18.6,0,33.8,15.1,33.8,33.7c0,1.4-0.1,2.8-0.3,4.2h2.7
		c0.2-1.4,0.2-2.8,0.2-4.2C75.4,19.4,59.1,3,39,3z"/>
	<path class="st0" d="M42.2,23.6h-9.4c-1,0-1.8,0.8-1.8,1.8v13.3h-2c-1,0-1.8,0.8-1.8,1.8s0.8,1.8,1.8,1.8h2v4h-2
		c-1,0-1.8,0.8-1.8,1.8s0.8,1.8,1.8,1.8h2v3.9c0,1,0.8,1.8,1.8,1.8s1.8-0.8,1.8-1.8v-3.9h7.7c1,0,1.8-0.8,1.8-1.8s-0.8-1.8-1.8-1.8
		h-7.7v-4h7.7c5.1,0,9.3-4.2,9.3-9.3C51.5,27.6,47.3,23.6,42.2,23.6L42.2,23.6z M42.2,38.6h-7.7V27.1h7.7c3.2,0,5.8,2.6,5.8,5.8
		C48,36,45.4,38.6,42.2,38.6z"/>
	<g>
		<path class="st0" d="M74.3,60.1l-7.2,7.2V43.7c0-0.8-0.6-1.4-1.4-1.4l0,0c-0.8,0-1.4,0.6-1.4,1.4v23.6L57,60.1
			c-0.6-0.6-1.5-0.6-2,0l0,0c-0.6,0.6-0.6,1.5,0,2l8.7,8.7l0,0l0.7,0.7c0.7,0.7,1.9,0.7,2.6,0l9.4-9.4c0.6-0.6,0.6-1.5,0-2l0,0
			C75.8,59.6,74.9,59.6,74.3,60.1z"/>
	</g>
</g>
</svg>
