<?xml version="1.0" encoding="utf-8"?>
<!-- Generator: Adobe Illustrator 22.0.1, SVG Export Plug-In . SVG Version: 6.00 Build 0)  -->
<svg version="1.1" id="Слой_1" xmlns="http://www.w3.org/2000/svg" xmlns:xlink="http://www.w3.org/1999/xlink" x="0px" y="0px"
	 viewBox="0 0 80 80" style="enable-background:new 0 0 80 80;" xml:space="preserve">
<style type="text/css">
	.st0{fill:#26AE61;}
</style>
<g>
	<path class="st0" d="M40.3,23.8c3.7,0,6.7,3,6.7,6.7s-3,6.7-6.7,6.7s-6.7-3-6.7-6.7S36.5,23.8,40.3,23.8 M40.3,21.5c-5,0-9,4.1-9,9
		s4.1,9,9,9s9-4.1,9-9S45.2,21.5,40.3,21.5L40.3,21.5z"/>
	<path d="M59.3,29.4c2.8,0,5,2.3,5,5s-2.3,5-5,5c-2.8,0-5-2.3-5-5S56.5,29.4,59.3,29.4 M59.3,27.1c-4,0-7.3,3.3-7.3,7.3
		s3.3,7.3,7.3,7.3s7.3-3.3,7.3-7.3S63.3,27.1,59.3,27.1L59.3,27.1z"/>
	<path d="M21.3,29.4c2.8,0,5,2.3,5,5s-2.3,5-5,5c-2.8,0-5-2.3-5-5S18.5,29.4,21.3,29.4 M21.3,27.1c-4,0-7.3,3.3-7.3,7.3
		s3.3,7.3,7.3,7.3s7.3-3.3,7.3-7.3S25.3,27.1,21.3,27.1L21.3,27.1z"/>
	<g>
		<path d="M58.3,43.9c-2.1,0-4.1,0.5-5.9,1.4c0.6,0.5,1.2,1.1,1.7,1.8c1.3-0.5,2.7-0.8,4.2-0.8c6,0,10.9,4.9,10.9,11l0,0h2.3l0,0
			C71.5,49.8,65.6,43.9,58.3,43.9z"/>
		<path class="st0" d="M50.3,46.5c-2.7-2.3-6.2-3.7-10.1-3.7c-4,0-7.6,1.5-10.3,3.9c-0.6,0.5-1.1,1.1-1.6,1.7
			c-2.3,2.7-3.7,6.2-3.7,10h2.3c0-3.2,1.2-6.1,3.1-8.4l0,0c0.5-0.6,1-1.1,1.6-1.6c2.3-2,5.4-3.2,8.7-3.2c3.1,0,6,1.1,8.3,2.9
			c0.6,0.5,1.2,1,1.7,1.6c2.1,2.3,3.3,5.4,3.4,8.7H56c0-3.9-1.5-7.5-3.9-10.2C51.5,47.6,50.9,47,50.3,46.5z"/>
		<path d="M27.9,45.5c-1.9-1-4-1.6-6.2-1.6c-7.3,0-13.3,6-13.3,13.3l0,0h2.3l0,0c0-6,4.9-11,11-11c1.6,0,3.2,0.4,4.6,1
			C26.8,46.6,27.4,46,27.9,45.5z"/>
	</g>
</g>
</svg>
