<?xml version="1.0" encoding="utf-8"?>
<!-- Generator: Adobe Illustrator 22.0.1, SVG Export Plug-In . SVG Version: 6.00 Build 0)  -->
<svg version="1.1" id="Слой_1" xmlns="http://www.w3.org/2000/svg" xmlns:xlink="http://www.w3.org/1999/xlink" x="0px" y="0px"
	 viewBox="0 0 80 80" style="enable-background:new 0 0 80 80;" xml:space="preserve">
<style type="text/css">
	.st0{fill:#26AE61;}
</style>
<g>
	<path class="st0" d="M40,39.9c5.1,0,9.2-4.1,9.2-9.2s-4.1-9.2-9.2-9.2s-9.2,4.1-9.2,9.2S34.9,39.9,40,39.9z M40,23.8
		c3.8,0,6.9,3.1,6.9,6.9s-3.1,6.9-6.9,6.9s-6.9-3.1-6.9-6.9S36.2,23.8,40,23.8z"/>
	<path class="st0" d="M50.3,47c-2.8-2.3-6.4-3.8-10.3-3.8c-4,0-7.7,1.5-10.5,4c-0.6,0.5-1.2,1.1-1.7,1.7c-2.3,2.8-3.8,6.3-3.8,10.2
		h2.4c0-3.3,1.2-6.3,3.1-8.6l0,0c0.5-0.6,1-1.2,1.7-1.7c2.4-2,5.5-3.2,8.8-3.2c3.2,0,6.2,1.1,8.5,3c0.6,0.5,1.2,1,1.7,1.6
		c2.1,2.4,3.4,5.5,3.4,8.9H56c0-4-1.5-7.7-4-10.4C51.5,48.1,50.9,47.5,50.3,47z"/>
	<path d="M78.3,39.1h-4.9C72.8,21.6,58.7,7.5,41.2,6.9V2c0-0.7-0.6-1.2-1.2-1.2c-0.7,0-1.2,0.6-1.2,1.2v4.9
		C21.3,7.5,7.2,21.6,6.6,39.1H1.7c-0.7,0-1.2,0.6-1.2,1.2c0,0.7,0.6,1.2,1.2,1.2h4.9C7.2,59,21.3,73.1,38.8,73.7v4.9
		c0,0.7,0.6,1.2,1.2,1.2c0.7,0,1.2-0.6,1.2-1.2v-4.9C58.7,73.1,72.8,59,73.4,41.5h4.9c0.7,0,1.2-0.6,1.2-1.2
		C79.6,39.6,79,39.1,78.3,39.1z M41.2,71.3v-4.8c0-0.7-0.6-1.2-1.2-1.2c-0.7,0-1.2,0.6-1.2,1.2v4.8C22.6,70.6,9.7,57.7,9,41.5h4.8
		c0.7,0,1.2-0.6,1.2-1.2c0-0.7-0.6-1.2-1.2-1.2H9C9.7,22.9,22.6,10,38.8,9.3v4.8c0,0.7,0.6,1.2,1.2,1.2c0.7,0,1.2-0.6,1.2-1.2V9.3
		C57.4,10,70.3,22.9,71,39.1h-4.8c-0.7,0-1.2,0.6-1.2,1.2c0,0.7,0.6,1.2,1.2,1.2H71C70.3,57.7,57.4,70.6,41.2,71.3z"/>
</g>
</svg>
