<svg xmlns="http://www.w3.org/2000/svg" width="800" height="800" viewBox="0 0 800 800"><defs><style>.cls-1{fill:#fff;}.cls-2{fill:#00b473;}</style></defs><title>logo_n</title><g id="Слой_2" data-name="Слой 2"><g id="Слой_5" data-name="Слой 5"><circle class="cls-1" cx="400" cy="400" r="400"/><path class="cls-2" d="M136.2106,170.648h66.53q25.738,0,40.7885,12.8709,15.0461,12.8733,15.0488,37.4227,0,15.4452-6.1382,26.2357a43.4627,43.4627,0,0,1-17.4248,16.93l21.78,44.9471H209.4727l-18.2165-37.819h-8.9105v37.819H136.2106Zm56.63,65.54q18.0154,0,18.0183-15.2459,0-15.2446-18.0183-15.2458H182.3457v30.4917Z"/><path class="cls-2" d="M280.8537,298.9557q-16.3353-13.0668-16.3354-37.0263,0-23.5618,14.751-37.2256,14.7486-13.6614,42.4725-13.6626,17.6214,0,30.1962,6.5346a45.2363,45.2363,0,0,1,19.008,17.82,50.2712,50.2712,0,0,1,6.4361,25.3445v12.871H306.8912q5.74,10.298,25.939,10.2956a135.52,135.52,0,0,0,19.5041-1.4836,80.0174,80.0174,0,0,0,17.3252-4.2582v26.7318a97.0211,97.0211,0,0,1-19.5041,5.1472,140.3773,140.3773,0,0,1-23.6616,1.9808Q297.1885,312.0249,280.8537,298.9557Zm54.5507-49.6991q-2.3764-9.8986-14.4542-9.9-11.6857,0-14.059,9.9Z"/><path class="cls-2" d="M387.6766,304.6976a14.2953,14.2953,0,0,1-4.3568-10.4939,14.8636,14.8636,0,0,1,4.3568-10.7905,14.1384,14.1384,0,0,1,10.4938-4.4553,15.2115,15.2115,0,0,1,15.247,15.2458,14.1427,14.1427,0,0,1-4.4553,10.4939,14.8637,14.8637,0,0,1-10.7917,4.3567A14.2907,14.2907,0,0,1,387.6766,304.6976Z"/><path d="M140.0656,345.26h48.7093l15.0488,62.569,15.4452-62.569H252.533l13.4644,62.7683L281.0462,345.26h48.7093L294.3124,483.6659h-42.571l-16.83-62.9676-16.83,62.9676H175.5087Z"/><path d="M349.8519,480.1008q-13.9588-6.5336-21.4837-18.0183a48.4722,48.4722,0,0,1,0-51.878q7.5221-11.48,21.4837-18.0183,13.9587-6.5334,32.5721-6.5345,18.61,0,32.5721,6.5345Q428.955,398.72,436.48,410.2045a48.4722,48.4722,0,0,1,0,51.878q-7.5273,11.4871-21.4838,18.0183-13.96,6.5334-32.5721,6.5345Q363.8107,486.6353,349.8519,480.1008Zm44.2539-32.2743q4.3541-4.3523,4.3568-11.683,0-7.3216-4.3568-11.683-4.3572-4.3523-11.6818-4.3556-7.3284,0-11.6818,4.3556-4.3592,4.359-4.3568,11.683,0,7.3285,4.3568,11.683,4.3523,4.359,11.6818,4.3556Q389.7475,452.1821,394.1058,447.8265Z"/><path d="M453.9024,388.6234H496.87v8.5142q5.5414-5.1473,15.0488-8.3172a64.1227,64.1227,0,0,1,20.3943-3.1687v34.4532a67.7777,67.7777,0,0,0-21.0874,3.0691q-9.4061,3.0714-12.7713,8.6139v51.878H453.9024Z"/><path d="M538.2529,337.3388h44.5518V422.68l24.9492-34.0568h50.6889l-33.2652,45.3434,38.6118,49.6991h-50.69l-30.2947-39.0082v39.0082H538.2529Z"/><path d="M403.1546,516.5132h11.5233V565.75q10.3268-12.72,28.5846-12.72,14.2169,0,21.1756,7.4814,6.96,7.4847,6.9593,20.0545v46.5416H459.8741V581.6122q0-9.2752-4.4892-14.2923-4.49-5.0113-14.3671-5.0125-16.6122,0-26.34,14.965v49.835H403.1546Z"/><path d="M498.5584,621.5717q-7.7089-7.78-7.7067-20.802V555.2745H502.375v46.0932q0,18.8563,19.6049,18.8563a28.3343,28.3343,0,0,0,14.4406-3.5923q6.209-3.5911,11.15-11.3727V555.2745h11.5233v71.8329H547.8691V616.3327q-9.7289,13.0194-27.2369,13.0193Q506.2657,629.352,498.5584,621.5717Z"/><path d="M604.6622,625.6872a36.4137,36.4137,0,0,1-13.3942-11.1507v12.5709H580.0437V516.5132H591.567v50.8815a29.1563,29.1563,0,0,1,13.02-10.7,44.6723,44.6723,0,0,1,18.1077-3.6648,38.8881,38.8881,0,0,1,19.2312,4.7883,34.1818,34.1818,0,0,1,13.469,13.5425,40.4582,40.4582,0,0,1,4.863,19.98,39.84,39.84,0,0,1-4.9378,20.0545,33.8953,33.8953,0,0,1-13.4689,13.3183,39.4535,39.4535,0,0,1-19.1565,4.6387A41.5993,41.5993,0,0,1,604.6622,625.6872Zm30.0806-9.0555a26.1029,26.1029,0,0,0,10.2515-10.1768,32.4056,32.4056,0,0,0,0-30.2289,26.6569,26.6569,0,0,0-10.2515-10.2515,28.9239,28.9239,0,0,0-14.4418-3.6671,31.11,31.11,0,0,0-18.0329,5.3885,26.7567,26.7567,0,0,0-10.7011,14.666V600.319A27.3669,27.3669,0,0,0,602.2681,614.91a30.978,30.978,0,0,0,18.0329,5.3137A29.4,29.4,0,0,0,634.7428,616.6317Z"/></g></g></svg>