<?xml version="1.0" encoding="utf-8"?>
<!-- Generator: Adobe Illustrator 22.0.1, SVG Export Plug-In . SVG Version: 6.00 Build 0)  -->
<svg version="1.1" id="Layer_1" xmlns="http://www.w3.org/2000/svg" xmlns:xlink="http://www.w3.org/1999/xlink" x="0px" y="0px"
	 viewBox="0 0 477 221.5" style="enable-background:new 0 0 477 221.5;" xml:space="preserve">
<style type="text/css">
	.st0{fill:#2D3540;}
	.st1{fill:#FF8C00;}
</style>
<g>
	<path class="st0" d="M233.9,123.3h7.2v16.2h5.2l9.4-16.2h7.9l-11.2,19v0.1l11.9,20.7h-8.2l-9.6-17.4h-5.2v17.4h-7.2v-39.9H233.9z
		 M280.5,133.9c8.7,0,15.8,6.3,15.8,15c0,8.8-7,15-15.7,15c-8.7,0-15.7-6.2-15.7-15C264.9,140,271.8,133.9,280.5,133.9z
		 M280.5,157.7c4.7,0,8.6-3.6,8.6-9c0-5.2-3.9-9-8.6-9s-8.4,3.6-8.4,9S275.8,157.7,280.5,157.7z M301.9,134.5h6.8V157h9v-22.5h6.8
		V157h9v-22.5h6.8v28.6h-38.2v-28.6H301.9z M360.6,133.9c8.2,0,12.7,6,12.7,13.5c0,0.9-0.1,1.9-0.3,2.8h-19.7c0.4,5,4.3,7.6,8.6,7.6
		c2.9,0,5.9-1.3,8.2-3.1l2.8,5.1c-2.9,2.5-7.4,4.1-11.5,4.1c-9.5,0-15.4-6.8-15.4-15C346,140,352,133.9,360.6,133.9z M366.1,145.3
		c0-3.7-2.5-6-5.8-6c-3.6,0-6.3,2.4-7,6H366.1z M376.6,157.2c3.5-0.5,6-3.5,6-13.7v-9h20.9v28.6h-7.1v-22.9h-7v3.2
		c0,12.4-3.3,19.7-12.9,19.9V157.2z M423.9,133.9c8.2,0,12.7,6,12.7,13.5c0,0.9-0.1,1.9-0.3,2.8h-19.7c0.4,5,4.3,7.6,8.6,7.6
		c2.9,0,5.9-1.3,8.2-3.1l2.8,5.1c-2.9,2.5-7.4,4.1-11.5,4.1c-9.5,0-15.4-6.8-15.4-15C409.3,140,415.3,133.9,423.9,133.9z
		 M429.4,145.3c0-3.7-2.5-6-5.8-6c-3.6,0-6.3,2.4-7,6H429.4z M442.5,134.5h7.1v11h3.5l7-11h7.9l-9.1,13.7v0.1l10.2,14.9h-8.3
		l-7.5-11.6h-3.7v11.6h-7.1v-28.6H442.5z"/>
	<path class="st1" d="M333.9,36.4V104c0,1.1-0.8,1.9-1.9,1.9h-13.8c-1.1,0-1.9-0.8-1.9-1.9V36.4c0-1.1,0.8-1.9,1.9-1.9h13.8
		C333.1,34.5,333.9,35.4,333.9,36.4z M441.6,34.5h-15.4c-0.8,0-1.5,0.5-1.7,1.3l-12.2,40l-13.4-40c-0.3-0.8-0.9-1.2-1.7-1.2h-10.8
		c-0.8,0-1.5,0.5-1.7,1.2l-13.4,40l-12.2-40c-0.3-0.8-0.9-1.3-1.7-1.3h-15.4c-0.5,0-1.2,0.3-1.5,0.8c-0.4,0.5-0.4,1.1-0.3,1.6
		l22.8,67.7c0.3,0.8,0.9,1.2,1.7,1.2h12.3c0.8,0,1.5-0.5,1.7-1.2l13.3-39.5l13.3,39.5c0.3,0.8,0.9,1.2,1.7,1.2h12.3
		c0.8,0,1.5-0.5,1.7-1.2L443.7,37c0.1-0.5,0.1-1.2-0.3-1.6C442.8,34.8,442.1,34.5,441.6,34.5z M464.9,34.5h-13.8
		c-1.1,0-1.9,0.8-1.9,1.9V104c0,1.1,0.8,1.9,1.9,1.9h13.8c1.1,0,1.9-0.8,1.9-1.9V36.4C466.6,35.4,465.8,34.5,464.9,34.5z
		 M308.4,103.5c0.8,0.9,0.1,2.3-1.1,2.3h-16.9c-0.7,0-1.3-0.3-1.7-0.8l-2.8-3.5c-5.9,3.7-12.9,6-20.2,6c-20.6,0-37.3-16.7-37.3-37.3
		s16.7-37.3,37.3-37.3S303,49.5,303,70.2c0,7.4-2.1,14.3-5.9,20.2L308.4,103.5z M274.9,88.5l-7.4-9c-0.8-0.9-0.1-2.4,1.1-2.4h15.5
		c0.8-2.1,1.2-4.6,1.2-7c0-11.1-8.3-20.7-19.7-20.7c-11.4,0-19.7,9.6-19.7,20.7s8.3,20.6,19.7,20.6C268.9,90.9,272.1,90,274.9,88.5z
		 M167.4,136.3c-1.7-0.7-3.2-0.1-3.9,1.1c-1.1,1.9-0.3,5.5,1.7,8.7c2,3.2,3.9,4.8,5.2,4.8s2.5-1.6,2-5.8
		C172.2,142.8,170.9,137.6,167.4,136.3z M147.1,151.4c-1.9,0-3.3,0.7-4.3,1.9c-2.4,2.9-1.3,8.3,2.4,11.5c1.6,1.5,4,2.3,6.3,2.3
		s4.3-0.9,5.5-2.4c2.1-2.9,0.9-7-3.2-10.4C151.6,152.4,149.2,151.4,147.1,151.4z M100.2,190.1c-50.9,0-92.1-41.2-92.1-92.1
		S49.3,5.9,100.2,5.9s92.1,41.2,92.1,92.1c0,17.3-4.8,33.5-13,47.3c-0.3,0.4-0.9,0.3-1.1-0.3c-3.2-22.6-17-35.1-37.1-38.8
		c-1.7-0.3-2-1.3,0.3-1.6c6.2-0.5,14.9-0.4,19.4,0.4c0.3-2.3,0.4-4.7,0.4-7.1c0-33.6-27.3-60.9-60.9-60.9S39.4,64.3,39.4,97.9
		s27.3,60.9,60.9,60.9c0.9,0,1.9,0,2.8,0l0,0c-1.1-5.9-1.3-11.9-1.2-16.5c0.1-3.7,0.9-4.3,2.5-1.3c8.4,14.6,20.5,27.7,44,32.9
		c19.3,4.3,38.6,9.2,59.3,35.6c1.9,2.3-0.9,4.7-3.1,2.8c-21.2-18.7-40.4-24.9-58-24.9C127.1,187.6,113.7,190.1,100.2,190.1z"/>
</g>
</svg>
