<svg xmlns="http://www.w3.org/2000/svg" width="1713" height="861" viewBox="0 0 1713 861"><title>Монтажная область 2 копия 3</title><g id="Слой_7" data-name="Слой 7"><path d="M148.745,786.6573,290.0666,532.875,44.2466,90H236.3257L385.6089,358.7111,535.888,90H727.9656L340.824,786.6573Z" fill="#00b473"/><path d="M626.9451,697.3755v-44.61H479.6779v44.61H395.8316V571.6067H438.83L525.9,384.0292h54.8224l86.5334,187.5775h43.5353V697.3755ZM524.2875,571.6067H581.26l-28.4854-66.1086Z"/><path d="M864.6738,637.4739l-4.8514-23.7752c-17.9535,16.4974-42.2131,26.6867-71.3254,26.6867-68.8991,0-116.448-55.3132-116.448-124.2115s47.5489-124.6974,116.448-124.6974c29.1123,0,53.3719,10.1893,71.81,27.1718l4.3669-23.7751h49.4908V637.4739Zm-19.8927-121.3c0-32.9942-24.7454-51.4314-48.5205-51.4314S747.74,483.18,747.74,516.1739s24.7454,50.9455,48.5206,50.9455S844.7811,549.1673,844.7811,516.1739Z"/><path d="M964.7753,622.5351H893.1435L993.862,405.4692h44.2819l100.2839,217.0659H1066.796l-50.793-118.9519Z"/><path d="M1272.5614,478.1282c9.1926,19.535,9.5759,47.4969,2.6814,66.2661H1154.968c0,17.2369,16.8536,26.43,34.857,26.43,16.8536,0,36.3886-3.0647,53.2422-9.9591l31.0258,34.0905c-20.3,14.9387-49.7943,30.26-84.268,30.26-57.4567,0-96.5268-43.2838-96.5268-98.0584,0-54.3913,35.6221-98.4417,96.1435-98.4417C1229.66,428.7157,1257.6227,446.7191,1272.5614,478.1282Zm-90.7807-90.7807c0,17.2369-15.322,30.6433-34.4737,30.6433s-34.4738-13.4064-34.4738-30.6433c0-16.8536,15.322-30.6432,34.4738-30.6432S1181.7807,370.4939,1181.7807,387.3475Zm-24.5146,119.5091h63.968a17.4627,17.4627,0,0,0-4.5964-11.1082c-4.9795-6.8952-14.5554-12.2574-27.196-12.2574C1169.9067,483.491,1157.6494,496.5142,1157.2661,506.8566ZM1266.05,387.3475c0,17.2369-15.322,30.6433-34.4737,30.6433s-34.4738-13.4064-34.4738-30.6433c0-16.8536,15.3206-30.6432,34.4738-30.6432S1266.05,370.4939,1266.05,387.3475Z"/><path d="M1385.41,592.6548V533.2319h-56.7672v59.4229h-51.7875V426.6691h51.7875v56.4351H1385.41V426.6691h51.7876V592.6548Z"/><path d="M1509.93,535.518c-5.6179-8.4268-9.7042-11.4915-18.6417-11.4915h-3.32v46.2217H1448.13V442.5645h39.838v42.9013h3.0647c8.9376,0,13.0224-2.809,18.6417-11.2358l20.4284-31.6655h44.1793l-30.899,46.9875c-4.0863,6.1287-11.4922,13.5346-15.8335,15.322,4.5963,1.5324,12.0023,8.9376,16.0885,15.067l32.9421,50.3072h-44.1793Z"/><path d="M1635.1613,555.3088l-2.0431-10.01c-7.5584,6.9458-17.774,11.2365-30.0313,11.2365-29.0112,0-49.0321-23.29-49.0321-52.3s20.0209-52.505,49.0321-52.505c12.2573,0,22.4729,4.29,30.235,11.441l1.8394-10.0112H1656v102.15Zm-8.3762-51.0745c0-13.8922-10.4194-21.6558-20.43-21.6558s-20.43,7.7636-20.43,21.6558,10.4193,21.4513,20.43,21.4513S1626.7851,518.1265,1626.7851,504.2343Z"/></g></svg>