<svg xmlns="http://www.w3.org/2000/svg" viewBox="0 0 387 507"><linearGradient id="a" gradientUnits="userSpaceOnUse" x1="-28.439" y1="103.777" x2="343.469" y2="415.845"><stop offset="0" stop-color="#fff000"/><stop offset=".598" stop-color="gold"/><stop offset="1" stop-color="#fc0"/></linearGradient><path d="M276.5 2.3L34.3 158.1C13.4 171.5.8 194.6.8 219.5L.3 470.1c0 20.4 16.5 36.9 36.8 36.9h320.3c16.2 0 29.4-13.2 29.4-29.4V215c0-11-8.9-20-20-20h-87.4L280 4.2c0-1.8-2-2.9-3.5-1.9z" fill="url(#a)"/><linearGradient id="b" gradientUnits="userSpaceOnUse" x1="185.451" y1="330.417" x2="503.076" y2="285.624"><stop offset="0" stop-color="#f0b200"/><stop offset="1" stop-color="#ffd900"/></linearGradient><path d="M386.7 389.9L81.2 467.3c-7 1.8-11.1-7.6-5.1-11.6l203-132.8.1-127.9h91.1c9.1 0 16.4 7.3 16.4 16.4v178.5z" fill="url(#b)"/><ellipse transform="rotate(-49.189 191.756 215.203)" cx="191.8" cy="215.2" rx="38.9" ry="25.3" fill="#171717"/></svg>
